<svg width="42" height="40" viewBox="0 0 42 40" fill="none" xmlns="http://www.w3.org/2000/svg">
<path d="M20 0C8.972 0 0 8.972 0 20C0 31.028 8.972 40 20 40C31.028 40 40 31.028 40 20C40 17.748 39.608 15.5884 38.918 13.5664L35.6797 16.8047C35.8897 17.8367 36 18.906 36 20C36 28.822 28.822 36 20 36C11.178 36 4 28.822 4 20C4 11.178 11.178 4 20 4C23.266 4 26.3038 4.98778 28.8398 6.67578L31.7031 3.8125C28.4071 1.4245 24.37 0 20 0ZM38.5859 2.58594L18 23.1719L11.4141 16.5859L8.58594 19.4141L18 28.8281L41.4141 5.41406L38.5859 2.58594Z" fill="black"/>
</svg>
